<svg xmlns="http://www.w3.org/2000/svg" width="419.01" height="370.999" viewBox="0 0 419.01 370.999">
  <g id="Group_1" data-name="Group 1" transform="translate(-333.4 -2.275)">
    <path id="Path_3" data-name="Path 3" d="M0,0H405V124H0Z" transform="translate(337 247)" fill="#f495bd"/>
    <path id="Path_2" data-name="Path 2" d="M58,0A58,58,0,1,1,0,58,58,58,0,0,1,58,0Z" transform="translate(477 96)" fill="#dd2027"/>
    <path id="Path_1" data-name="Path 1" d="M1169.411,530.274H750.4V400.25l4.21-2.99c24.118-17.129,80.827-59.837,81.4-60.266a10,10,0,1,1,12.034,15.974c-.541.408-51.526,38.805-77.64,57.587v99.718h379.01V419.812l-136.245-62.967C1000.7,367.712,967.783,393.3,934.251,393.3a61.651,61.651,0,0,1-10.077-.811c-20.385-3.371-36.613-16.763-48.236-39.8-13.016-29.62-11.836-57.852,3.093-79.979,13.938-20.659,38.045-32.587,64.585-31.991q3.259-.288,6.41-.359a51.7,51.7,0,0,1,12.866-7.153c23.217-9.007,29.092-25.619,30.528-34.72,1.767-11.2-1.619-19.306-3.263-20.644A9.922,9.922,0,0,1,986.6,164.22a10.071,10.071,0,0,1,13.743-3.578c9.28,5.389,14.661,19.941,13.389,36.212-.806,10.316-5.562,33.754-31.155,48.976,18.222,7.134,30.448,20.262,34.27,33.65,4.194,14.688-1.941,28.163-16.012,35.167-16.4,7.665-33.494,6.269-47.13-3.723-13.964-10.234-21.591-27.432-19.429-43.815a39.8,39.8,0,0,1,1.3-6.111c-16.606,1.634-31.176,9.869-39.966,22.9-10.955,16.237-11.518,37.641-1.587,60.27,8.473,16.765,19.465,26.275,33.378,28.589,34.821,5.791,76.518-34.508,76.935-34.916l4.929-4.818,6.263,2.885,153.883,71.119Zm-211.6-269.708a19.306,19.306,0,0,0-3.708,9.158c-1.2,9.106,3.389,19.179,11.423,25.067,5.429,3.978,14.453,7.528,26.618,1.843,5.185-2.585,6.994-6.325,5.47-11.664C994.83,275.2,980.667,262.423,957.815,260.566Z" transform="translate(-417 -157)" fill="#343432"/>
  </g>
</svg>
